
<svg xmlns="http://www.w3.org/2000/svg" viewBox="0 0 18 17"><path d="M9 5.4c-1.7 0-3.1 1.4-3.1 3.1 0 1.7 1.4 3.1 3.1 3.1s3.1-1.4 3.1-3.1c0-1.7-1.4-3.1-3.1-3.1zm0 4.8c-.9 0-1.6-.7-1.6-1.6C7.4 7.7 8.1 7 9 7s1.6.7 1.6 1.6c0 .9-.7 1.6-1.6 1.6zm6.5-4.6c-.4 0-.7-.1-.8-.3-.1-.2 0-.5.2-.9.3-.5.4-1.1.2-1.7-.2-.6-.5-1.1-1.1-1.4L12.6.5c-1-.6-2.3-.3-2.9.7v.2c-.2.4-.5.6-.7.6-.2 0-.5-.2-.7-.6l-.1-.1C7.6.3 6.4 0 5.4.5L4 1.3c-.5.3-.9.8-1 1.4-.2.6-.1 1.2.2 1.7.2.4.3.7.2.9-.2.2-.5.3-.9.3-1.3 0-2.3 1-2.3 2.3v1.4c0 1.3 1 2.3 2.3 2.3.4 0 .7.1.8.3.1.2 0 .5-.2.9-.3.5-.4 1.1-.2 1.7.2.5.6 1 1.1 1.3l1.4.8c1 .6 2.3.2 2.9-.7l.1-.2c.2-.4.5-.6.7-.6.2 0 .5.2.7.6l.1.2c.4.7 1.1 1 1.8 1 .4 0 .7-.1 1-.3l1.4-.8c1.1-.6 1.5-2 .8-3.1-.2-.4-.3-.7-.2-.9.1-.2.4-.3.8-.3 1.3 0 2.3-1 2.3-2.3V7.8c0-1.2-1.1-2.2-2.3-2.2zm.7 3.7c0 .4-.3.8-.8.8-1 0-1.7.4-2.1 1-.4.7-.3 1.5.2 2.4.2.4.1.8-.3 1l-1.4.8c-.3.2-.6.1-.8-.2v-.2c-.5-.8-1.2-1.3-2-1.3s-1.5.5-2 1.3v.1c-.2.3-.5.4-.8.2l-1.4-.8c-.2-.1-.3-.3-.4-.5-.1-.2 0-.4.1-.6.5-.7.5-1.6.1-2.2-.4-.7-1.2-1-2.1-1-.4 0-.8-.3-.8-.8V7.8c0-.4.3-.8.8-.8 1 0 1.7-.4 2.1-1 .4-.6.4-1.5-.1-2.3-.1-.2-.1-.4-.1-.6.1-.2.2-.4.4-.5l1.4-.8c.2-.1.6 0 .7.2l.1.2c.5.8 1.2 1.3 2 1.3s1.5-.5 2-1.3V2c.2-.3.5-.4.8-.2l1.4.8c.2.1.3.3.4.5.1.2 0 .4-.1.6-.5.8-.5 1.7-.1 2.3.4.7 1.2 1 2.1 1 .4 0 .8.3.8.8v1.5z"/></svg>