
<svg xmlns="http://www.w3.org/2000/svg" viewBox="0 0 18 20">
    <path d="M3.3 16.5h.4l2.9-.5c.6-.1 1.3-.5 1.6-.9l6-6.4.1-.1 1.2-1.3c.8-.9 1.3-1.8 1.3-2.6.1-1.1-.4-2.1-1.5-3.2-2-1.8-3.9-1.8-5.8.2L2.3 9.5c-.4.4-.7 1.1-.8 1.7l-.3 2.9c-.1.7.1 1.4.6 1.9.4.3.9.5 1.5.5zm7.4-13.7c1.1-1.2 2.1-1.6 3.6-.1.7.7 1.1 1.3 1 2 0 .5-.3 1.1-.9 1.7l-.9 1c-1.9-.4-3.4-1.8-3.8-3.6l1-1zM3 11.4c0-.2.2-.7.4-.9L8.6 5c.7 1.7 2 3 3.7 3.5L7.1 14c-.2.2-.6.4-.8.4l-2.9.6c-.3 0-.5 0-.6-.1-.1-.1-.2-.4-.2-.6l.4-2.9zm14 6.5H1c-.4 0-.8.3-.8.8s.3.8.8.8h16c.4 0 .8-.3.8-.8s-.4-.8-.8-.8z"/>
</svg>