
<svg xmlns="http://www.w3.org/2000/svg" viewBox="0 0 20 18">
    <path d="M17.7 8.2c.1-1-.4-2-1.7-3.2l-3-3C10.2-.8 8.7.3 7 2L2.1 6.9c-2.3 2.3-2.6 3.4 0 6l3 3c1.2 1.2 2.1 1.8 3 1.8s1.8-.6 3-1.8L16 11c.9-.8 1.7-1.7 1.7-2.8zM3.2 7.9 8.1 3c.8-.8 1.3-1.2 1.9-1.2.5 0 1.1.4 2 1.3l3 3c1.1 1.1 1.2 1.7 1.2 2.1 0 .1-.1.3-.1.5-4.3-1.2-8.9-1.3-13.3-.4l.4-.4zM15 10l-4.9 4.9c-1.8 1.8-2.1 1.8-3.9 0l-3-3c-.8-.8-1.3-1.3-1.4-1.8C6.2 9 10.7 8.9 15 10c.1-.1.1 0 0 0zm4.1 4-.6-1c-.4-.6-.9-.9-1.5-.9s-1.1.3-1.5.9l-.5 1c-.5.9-.6 1.8-.2 2.5.4.7 1.2 1.1 2.3 1.1s1.9-.4 2.3-1.1c.3-.7.2-1.6-.3-2.5zM18 15.8c-.1.2-.5.3-1 .3s-.8-.1-1-.3c-.1-.2-.1-.6.2-1l.6-1 .2-.2.2.2.6 1c.2.4.3.8.2 1z"/>
</svg>